<?xml version="1.0" encoding="UTF-8" standalone="no"?>
<svg viewBox="0 0 64 64" xmlns="http://www.w3.org/2000/svg">
<g transform="matrix(.31048,0,0,.31048,-120.08633,-84.00664)">
<path d="m573.43359,298.45013h18.07528v39.69473h-18.07528z" fill="#a4a4a4" stroke="#484848" stroke-linecap="round" stroke-linejoin="round" stroke-width="2.80684"/>
<path d="m568.24957,299.8634h21.92845v9.12223h-21.92845z" fill="#e3e3e3"/>
<path d="m568.18378,327.62482h21.92845v9.12223h-21.92845z" opacity=".35"/>
<path d="m573.43359,298.45013h18.07528v39.69473h-18.07528z" fill="none" stroke="#484848" stroke-linecap="round" stroke-linejoin="round" stroke-width="2.80684"/>
</g>
<g transform="matrix(.31048,0,0,.31048,-120.08633,-82.04236)">
<path d="m388.18207,298.45013h18.07528v39.69473h-18.07528z" fill="#a4a4a4" stroke="#484848" stroke-linecap="round" stroke-linejoin="round" stroke-width="2.80684"/>
<path d="m389.2915,299.73184h21.92845v9.12223h-21.92845z" fill="#e3e3e3"/>
<path d="m389.64236,327.80026h21.92845v9.12223h-21.92845z" opacity=".35"/>
<path d="m388.18207,298.45013h18.07528v39.69473h-18.07528z" fill="none" stroke="#484848" stroke-linecap="round" stroke-linejoin="round" stroke-width="2.80684"/>
</g>
<g transform="matrix(.31048,0,0,.55808,-120.08633,-152.15685)">
<path d="m404.89108,273.69226h169.30867v87.08389h-169.30867z" fill="#a4a4a4" stroke="#484848" stroke-linecap="round" stroke-linejoin="round" stroke-width="2.80684"/>
<path d="m549.65255,274.74182h22.6827v92.50289h-22.6827c6.55323-30.8343 10.45347-61.66858 0-92.50289z" opacity=".3285"/>
<path d="m407.67499,320.77841 1.41767-42.8845 74.0732-1.06324-67.6937,6.37951-7.79717,37.56823z" fill="#e5e5e5"/>
</g>
<path d="m353.55338,256.10944c0,6.41575-4.8618,11.61675-10.85914,11.61675s-10.85914-5.201-10.85914-11.61675 4.86181-11.61676 10.85914-11.61676 10.85914,5.201 10.85914,11.61676z" fill="#fff" stroke="#484848" stroke-width="2.86566" transform="matrix(.72186,0,0,.67478,-226.58622,-157.17567)"/>
<path d="m349.26024,252.06883a6.18718,5.05076 0 1,1 -12.37437,0 6.18718,5.05076 0 1,1 12.37437,0z" fill="#292929" transform="matrix(.59582,0,0,.72988,-183.62037,-168.33869)"/>
<path d="m353.55338,256.10944c0,6.41575-4.8618,11.61675-10.85914,11.61675s-10.85914-5.201-10.85914-11.61675 4.86181-11.61676 10.85914-11.61676 10.85914,5.201 10.85914,11.61676z" fill="#fff" stroke="#484848" stroke-width="2.31119" transform="matrix(.89503,0,0,.83666,-265.77124,-198.96582)"/>
<path d="m349.26024,252.06883a6.18718,5.05076 0 1,1 -12.37437,0 6.18718,5.05076 0 1,1 12.37437,0z" fill="#292929" transform="matrix(.44378,0,0,.54363,-111.29675,-121.72069)"/>
<g transform="matrix(.31048,0,0,.72239,-120.08633,-204.97564)">
<path d="m397.43811,324.00938h23.15972l21.6834,22.99712h92.63888l24.63602-22.99712h23.15973v47.40944h-185.27775v-47.40944z" fill="#a4a4a4" stroke="#484848" stroke-linecap="round" stroke-linejoin="round" stroke-width="2.80684"/>
<path d="m580.59225,324.94555-.008,45.55989h-34.02419l.57924-32.8053 13.71755-12.77306z" opacity=".3285"/>
<path d="m400.25692,334.90971 .13445,33.99307 61.93616.0556-56.33125-5.33301-5.7394-28.7156 4e-005-3e-005z" fill="#e5e5e5"/>
</g>
</svg>