<?xml version="1.0" encoding="utf-8"?>
<!DOCTYPE svg PUBLIC "-//W3C//DTD SVG 1.1//EN" "http://www.w3.org/Graphics/SVG/1.1/DTD/svg11.dtd">
<svg version="1.1" id="Ebene_1" xmlns="http://www.w3.org/2000/svg" xmlns:xlink="http://www.w3.org/1999/xlink" x="0px" y="0px"
	 width="280.199px" height="152.6px" viewBox="0 0 280.199 152.6" enable-background="new 0 0 280.199 152.6" xml:space="preserve">
<symbol  id="Gras_4" viewBox="-22.384 -11.915 44.766 23.829">
	<g>
		<path fill="#13A538" d="M8.129-5.523L9.65-6.459c0,0-0.352,14.745,0.584,18.373C10.234,11.914,7.66,4.775,8.129-5.523z"/>
	</g>
	<g>
		<path fill="#13A538" d="M11.406-5.289l1.168,0.818c0,0-0.232,11.587,0.234,12.757C12.809,8.286,11.055-0.373,11.406-5.289z"/>
	</g>
	<g>
		<path fill="#13A538" d="M1.133-10.627l-1.316,0.818c0,0,0.263,11.588-0.264,12.757C-0.447,2.948,1.528-5.711,1.133-10.627z"/>
	</g>
	<g>
		<path fill="#86BC25" d="M15.266-5.758l0.82,0.819l0.117,9.597C16.203,4.658,14.916-2.947,15.266-5.758z"/>
	</g>
	<g>
		<path fill="#158C2F" d="M6.373-5.758c0,0,0,9.595-1.053,11.938c0,0-0.002-9.012-0.352-10.768L6.373-5.758z"/>
	</g>
	<g>
		<path fill="#158C2F" d="M22.383-9.639c0,0,0,9.596-1.053,11.937c0,0-0.002-9.011-0.352-10.767L22.383-9.639z"/>
	</g>
	<g>
		<path fill="#158C2F" d="M13.16-7.279c0,0,1.053,6.904,3.861,8.66c0,0-3.043-6.084-2.691-9.596L13.16-7.279z"/>
	</g>
	<g>
		<path fill="#158C2F" d="M13.041-7.643c0,0,1.053,6.904,3.861,8.66c0,0-3.045-6.087-2.693-9.597L13.041-7.643z"/>
	</g>
	<g>
		<path fill="#86BC25" d="M11.289-5.426c0,0,0.115,8.309-2.342,10.299c0,0,1.639-7.957,1.17-11.937L11.289-5.426z"/>
	</g>
	<g>
		<path fill="#13A538" d="M6.139-7.981c0,0-0.35,9.479,1.17,13.341c0,0-0.584-12.755,0-14.979L6.139-7.981z"/>
	</g>
	<g>
		<path fill="#86BC25" d="M4.028-4.059c0,0,0.116,6.553-0.585,9.127c0,0-0.117-9.946-0.82-12.756L4.028-4.059z"/>
	</g>
	<g>
		<path fill="#13A538" d="M4.852-7.864c0,0-0.586,6.437-3.745,9.245c0,0,3.277-8.309,2.81-11L4.852-7.864z"/>
	</g>
	<g>
		<path fill="#13A538" d="M20.74-6.166c0,0-0.586,6.437-3.744,9.246c0,0,3.275-8.31,2.809-11L20.74-6.166z"/>
	</g>
	<g>
		<path fill="#13A538" d="M16.672-7.161c0,0-0.35,2.573,1.404,4.914c0,0-0.818-5.734-0.352-7.606L16.672-7.161z"/>
	</g>
	<g>
		<path fill="#158C2F" d="M15.951-8.623c0,0,0,7.52,2.062,10.309c0,0-1.578-9.581-1.092-13.22L15.951-8.623z"/>
	</g>
	<g>
		<path fill="#86BC25" d="M2.725-6.342c0,0-1.254,10.488-1.911,11.486c0,0,0.835-10.928,0.316-12.982L2.725-6.342z"/>
	</g>
	<g>
		<path fill="#86BC25" d="M11.949-7.896c0,0,0.848,8.854,2.062,11.401c0,0-0.486-7.157-0.486-9.098L11.949-7.896z"/>
	</g>
	<g>
		<path fill="#86BC25" d="M18.135-8.381c0,0,0.848,8.854,2.062,11.399c0,0-0.486-7.155-0.486-9.096L18.135-8.381z"/>
	</g>
	<g>
		<path fill="#86BC25" d="M7.219-5.834c0,0,1.336,10.309,0.365,13.705c0,0,1.939-10.188,0.971-15.525L7.219-5.834z"/>
	</g>
	<g>
		<path fill="#13A538" d="M-19.223-6.074l-1.521-0.766c0,0,0.352,12.053-0.586,15.018C-21.33,8.178-18.756,2.344-19.223-6.074z"/>
	</g>
	<g>
		<path fill="#13A538" d="M-10.869-5.669l1.168,1.044c0,0-0.232,14.781,0.234,16.274C-9.467,11.649-11.221,0.602-10.869-5.669z"/>
	</g>
	<g>
		<path fill="#13A538" d="M-12.228-11.006l1.315,0.818c0,0-0.262,11.586,0.265,12.757C-10.647,2.569-12.623-6.092-12.228-11.006z"/>
	</g>
	<g>
		<path fill="#86BC25" d="M-7.01-6.137l0.82,0.818l0.117,9.598C-6.072,4.279-7.359-3.328-7.01-6.137z"/>
	</g>
	<g>
		<path fill="#158C2F" d="M-17.469-6.137c0,0,0,9.596,1.055,11.935c0,0,0-9.009,0.351-10.765L-17.469-6.137z"/>
	</g>
	<g>
		<path fill="#158C2F" d="M0.107-10.019c0,0,0,9.595-1.053,11.937c0,0-0.002-9.011-0.352-10.767L0.107-10.019z"/>
	</g>
	<g>
		<path fill="#158C2F" d="M-9.115-7.658c0,0,1.053,6.904,3.861,8.66c0,0-3.043-6.086-2.691-9.597L-9.115-7.658z"/>
	</g>
	<g>
		<path fill="#86BC25" d="M-22.383-5.805c0,0-0.115,8.309,2.342,10.297c0,0-1.639-7.956-1.172-11.936L-22.383-5.805z"/>
	</g>
	<g>
		<path fill="#13A538" d="M-17.234-8.362c0,0,0.352,9.481-1.17,13.343c0,0,0.584-12.756,0-14.979L-17.234-8.362z"/>
	</g>
	<g>
		<path fill="#86BC25" d="M-15.123-4.439c0,0-0.117,6.555,0.586,9.129c0,0,0.115-9.947,0.818-12.756L-15.123-4.439z"/>
	</g>
	<g>
		<path fill="#13A538" d="M-1.535-6.545c0,0-0.586,6.436-3.744,9.245c0,0,3.275-8.309,2.809-11.001L-1.535-6.545z"/>
	</g>
	<g>
		<path fill="#13A538" d="M-5.604-7.541c0,0-0.35,2.574,1.404,4.914c0,0-0.818-5.732-0.352-7.605L-5.604-7.541z"/>
	</g>
	<g>
		<path fill="#158C2F" d="M-6.324-9.003c0,0,0,7.518,2.062,10.309c0,0-1.578-9.581-1.093-13.221L-6.324-9.003z"/>
	</g>
	<g>
		<path fill="#86BC25" d="M-13.82-6.722c0,0,1.254,10.487,1.912,11.485c0,0-0.836-10.928-0.316-12.98L-13.82-6.722z"/>
	</g>
	<g>
		<path fill="#86BC25" d="M-10.326-8.275c0,0,0.848,8.854,2.062,11.401c0,0-0.486-7.157-0.486-9.097L-10.326-8.275z"/>
	</g>
	<g>
		<path fill="#86BC25" d="M-4.141-8.762c0,0,0.848,8.855,2.062,11.402c0,0-0.486-7.158-0.486-9.098L-4.141-8.762z"/>
	</g>
	<g>
		<path fill="#86BC25" d="M-18.314-6.215c0,0-1.336,10.309-0.365,13.706c0,0-1.939-10.189-0.969-15.525L-18.314-6.215z"/>
	</g>
	<g>
		<path fill="#158C2F" d="M-12.26-8.023c0,0-1.054,6.905-3.861,8.66c0,0,3.043-6.084,2.691-9.596L-12.26-8.023z"/>
	</g>
	<g>
		<path fill="#13A538" d="M-5.549-8.244c0,0-0.586,6.436-3.745,9.246c0,0,3.277-8.309,2.81-11.001L-5.549-8.244z"/>
	</g>
</symbol>
<g>
	<defs>
		<rect id="SVGID_1_" x="9.562" y="8.821" width="259.153" height="144.003"/>
	</defs>
	<clipPath id="SVGID_2_">
		<use xlink:href="#SVGID_1_"  overflow="visible"/>
	</clipPath>
	<rect y="146.245" clip-path="url(#SVGID_2_)" fill="#56AC32" width="280.199" height="15.176"/>
	<path clip-path="url(#SVGID_2_)" fill="#4D984C" d="M211.399,131.291c-1.656-1.633-2.614-3.822-3.584-5.98
		c2.153-4.978,0.379-9.794-0.497-15.008c-0.581-3.491-0.893-7.148-0.555-10.703c0.171-0.036,0.342-0.062,0.508-0.096
		c5.676-1.134,5.967-8.008,2.604-11.312c0.218-0.675,0.426-1.349,0.597-2.039c0.711-2.786,0.343-4.9-0.752-6.506
		c0.467-3.626,0.602-7.21,0.851-9.901c0.758-8.266,0.15-16.724-3.745-23.999c0.694-2.148,0.487-4.582-0.571-6.584
		c2.293-3.156,3.403-7.141,0.991-10.704c-2.028-2.983-5.411-4.696-9.038-3.679c-1.677,0.47-3.146,1.291-4.522,2.263
		c-1.333-1.935-2.719-3.835-4.187-5.671c-1.059-0.428-2.177-0.592-3.311-0.299c0,0-0.861,2.707-0.965,5.84l-3.196,1.508
		c-0.168-2.151-1.192-2.861-1.192-2.861c-3.276,1.023-4.603,3.203-5.132,5.012c-0.456-4.012-4.279-7.338-4.279-7.338
		c-4.944,3.956-5.453,11.309-5.505,12.79l-0.083,0.04c-1.222-3.664-3.16-3.891-3.16-3.891c-2.562,3.381-3.74,5.076-4.285,5.922
		c-0.254,0.152-0.482,0.308-0.685,0.458c-0.146-0.226-0.296-0.435-0.446-0.622c0.441-2.394-0.908-5.197-0.908-5.197
		c-3.662-1.143-6.005,2.429-6.005,2.429c2.519-5.115,5.015-5.343,5.015-5.343c-2.438-5.135-8.351-2.512-8.852-2.277
		c5.069-2.207,6.589-9.611,6.589-9.611c-6.023-0.783-10.08,2.305-12.353,4.881c0.905-4.352-1.491-11.232-1.491-11.232
		c-9.395,4.239-7.189,12.002-7.189,12.002c-2.288-5.535-10.658-6.355-10.658-6.355c-1.049,3.217,1.623,6.197,3.583,7.867
		c-2.318-1.182-4.591-0.668-4.591-0.668c-1.369,1.076-2.02,2.246-2.269,3.361c-0.14-0.219-0.291-0.434-0.468-0.654
		c0,0-2.096-1.021-4.623-0.398c2.291-1.18,5.572-3.473,5.284-6.844c0,0-8.336-1.111-11.826,3.758c0,0,2.926-4.869-3.47-9.684
		c0,0-4.126,3.895-4.647,7.256c-1.566-3.059-4.823-7.246-11.069-7.875c0,0-0.213,7.553,4.218,10.859
		c-0.438-0.344-5.59-4.243-9.137,0.197c0,0,2.378,0.792,3.663,6.344c0,0-1.463-4.008-5.292-3.733c0,0-3.025,3.753-1.774,6.604
		c-0.574-1.061-3.065-4.766-10.068-5.266c0,0,1.481,7.927,5.095,10.545c-1.988-0.996-5.928-2.803-8.44-2.846
		c0,0-1.496,2.966,3.658,5.297c-1.601-0.621-5.074-1.786-8.64-1.748c0,0,1.536,3.234,5.327,5.703
		c-6.391,3.475-7.393,10.596-6.815,18.029c0.467,5.992-1.564,12.659,1.388,17.715c-0.502,5.056-0.387,10.122,0.153,15.289
		c0.618,5.943-4.515,13.318-0.02,18.545c-0.917,1.775-1.288,3.772-1.028,5.68c-1.28,2.149-1.159,4.636-1.43,7.106
		c-0.003,0.031-0.007,0.062-0.011,0.093c-2.434,3.015-2.288,7.607-0.81,11.612c-0.269,1.63,0.073,3.355,1.319,5.002
		c0.046,0.062,0.101,0.112,0.149,0.172c-1.484,3.259,0.106,7.995,4.781,7.991c23.062-0.02,46.129-0.23,69.189,0.184
		c22.83,0.41,45.261,2.841,68.034-0.183c0.023-0.001,0.048,0,0.072-0.001c0-0.003-0.001-0.006-0.001-0.009
		c0.487-0.064,0.975-0.117,1.463-0.188c4.089-0.587,4.796-5.112,3.081-8.117c0.659-1.141,1.022-2.361,1.138-3.608
		C211.092,141.296,215.532,135.364,211.399,131.291z"/>
	<path clip-path="url(#SVGID_2_)" fill="#00853D" d="M153.434,69.896c-2.133-1.665-5.35-2.078-8.073-2.067
		c5.417-2.189,8.094-9.154,8.094-9.154c-13.432-5.69-17.728,4.116-17.728,4.116c0.804-7.503-6.204-11.957-6.204-11.957
		c-2.578,3.367-1.732,8.011-0.846,10.802c-1.452-2.367-3.735-2.701-3.735-2.701c-5.995,2.38-0.55,8.87-5.4,9.216
		c-2.797,0.198-2.081-3.731-2.081-3.731c-0.409,0.169-0.76,0.379-1.079,0.613c-2.111-0.488-3.953-0.63-5.541-0.544
		c-0.306-0.11-0.514-0.144-0.514-0.144c-0.06,0.059-0.105,0.138-0.163,0.199c-3.391,0.328-5.513,1.656-6.524,2.476v-0.209
		c1.65-2.697,0.219-6.946,0-7.555v-5.109h-1.65c-2.909-4.53-9.105-2.374-9.674-2.159c6.302-2.152,8.854-10.885,8.854-10.885
		c-7.385-1.586-12.664,1.998-15.591,4.918c0.641-4.039-2.646-10.023-2.646-10.023c-9.107,3.148-7.557,9.811-7.557,9.811
		c-2.196-6.87-12.158-8.682-12.158-8.682c-1.576,3.755,1.336,7.598,3.523,9.797c-2.663-1.652-5.444-1.258-5.444-1.258
		c-0.75,0.496-1.341,1.023-1.807,1.571c-1.097-2.367-2.201-4.093-2.201-4.093c-5.721,6.224-4.843,11.525-4.469,12.927
		c-1.259-3.529-7.009-4.321-7.009-4.321c-2.552,2.081-2.251,5.07-1.872,6.621c-0.096-0.03-0.192-0.058-0.289-0.086
		c-2.668-5.149-1.42-7.475-1.42-7.475c-6.775-0.961-8.07,6.715-8.168,7.372c1.152-6.557-5.271-12.996-5.271-12.996
		c-4.948,5.707-4.351,12.062-3.2,16.034c-3.233-2.51-10.058-2.51-10.058-2.51c-1.628,9.495,4.957,11.344,4.957,11.344
		c-7.081-1.382-9.869,3.261-9.869,3.261c3.856,4.858,9.315,3.903,9.315,3.903c-4.743,0.856-6.35,5.108-6.35,5.108
		c0.573,7.092,7.768,6.661,7.41,6.812c-0.3,0.13-0.556,0.244-0.817,0.363c-0.157-0.011-0.249-0.016-0.249-0.016
		c-0.011,0.047-0.013,0.088-0.023,0.138c-2.413,1.107-3.153,1.704-3.153,1.704c0.253,2.817,2.235,3.876,3.673,4.27
		c0.023,0.047,0.046,0.091,0.071,0.133c-4.433,0.018-5.894,3.862-5.894,3.862c0.179,0.337,0.402,0.607,0.642,0.851
		c-1.441,1.063-2.351,2.075-2.351,2.075c0.355,0.496,0.785,0.875,1.261,1.165c0.891,0,3.375,0.044,7.055,0.119
		c-0.688,1.525-1.049,3.188-1.364,4.916c-0.697,3.813-3.411,6.937-3.737,10.781c-0.221,2.615,0.295,4.722,1.316,6.444
		c-1.052,3.221-2.199,6.411-3.301,9.635c-1.609,4.706-0.901,10.981,4.674,12.516c3.283,0.903,6.612-0.521,9.9-0.521
		c3.941,0,7.874,0.013,11.811-0.174c9.672-0.459,19.317-0.199,28.998-0.142c18.083,0.108,36.168,0.055,54.249-0.039
		c4.433-0.023,8.839,0.503,13.257,0.79c2.741,0.179,6.81,1.109,9.47,0.104c2.97-1.123,4.818-2.648,5.658-5.809
		c0.734-2.764-0.812-5.582-2.129-8.208c0.506-0.629,0.896-1.347,1.104-2.149c2.268-8.764,2.973-19.191,1.142-28.366
		c1.167-4.786,0.664-9.58,0.482-14.366c-2.055-0.443-3.113-0.174-3.616,0.366c0.897-2.094,3.258-3.912,3.258-3.912
		c-1.219-1.898-10.501-1.629-10.501-1.629c4.852-5.002,11.331-4.169,11.331-4.169c-3.118-2.696-7.04-2.512-7.04-2.512
		C151.82,76.892,153.434,69.896,153.434,69.896z"/>
	<path clip-path="url(#SVGID_2_)" fill="#94BB8A" d="M170.591,127.561c1.168-13.505,4.921-26.392,11.749-37.764
		c-0.05-0.285-0.104-0.576-0.138-0.877c-0.83-7.787,5.175-17.746,10.661-22.816c0.247-0.227,0.498-0.432,0.75-0.632
		c0.724-1.401,1.707-2.729,2.985-3.938c0.397-0.376,0.81-0.691,1.225-0.989c-0.804-0.996-1.681-1.97-2.771-2.812
		c-0.143-0.108-0.293-0.22-0.443-0.332c-0.462-1.363-0.521-2.859,0.443-4.191c0,0,4.622-0.407,6.525,4.281
		c-0.389-1.444-0.68-4.268,2.226-5.997c0,0,1.157,0.548,3.979,3c0.307,0.271-3.356-6.306,3.056-10.054c0,0,2.916-0.251,5.599,1.615
		c-2.153-2.414-4.971-6.584-3.118-10.407c0,0,10.282,2.447,12.187,9.733c0,0-1.24-7.031,8.426-9.796c0,0,3.092,6.426,2.189,10.604
		c3.216-2.878,8.923-6.325,16.539-4.253c0,0-3.159,8.959-9.847,10.842c0.659-0.203,8.473-2.462,10.636,4.349
		c0,0-3.149-0.144-7.16,5.793c0,0,3.528-4.046,7.896-1.999c0,0,1.857,5.768-0.893,8.545c1.147-0.984,5.738-4.205,14.18-1.643
		c0,0-5.308,8.639-10.724,10.079c1.12-0.109,2.677-0.228,4.332-0.267c1.582-0.59,2.89-0.972,4.005-1.216
		c-0.094,2.383-0.233,4.77-0.321,7.146c6.412,2.849,8.016,11.383,4.545,16.089c2.702,4.104,4.03,8.409,2.89,13.308
		c-0.343,1.494-1.048,2.692-1.967,3.626c-0.041,0.659-0.067,1.317-0.119,1.977c-0.171,2.216-0.358,4.395-0.451,6.62
		c-0.073,1.795,1.225,3.73,1.271,5.608c0.213,8.218-5.873,12.992-13.541,14.087c-8.072,1.162-16.431,0.639-24.565,1.276
		c-9.416,0.742-18.916,5.936-27.227-1.261c-0.286,0.031-0.556,0.083-0.852,0.094C191.048,145.389,168.825,148.029,170.591,127.561z"
		/>
	<path clip-path="url(#SVGID_2_)" fill="#00754B" d="M263.738,142.072c-0.549-5.11-1.174-10.545-3.021-15.436
		c1.308-6.321,1.591-13.444,0.319-19.804c0.919-3.764,0.524-7.536,0.384-11.297c-1.618-0.351-2.448-0.138-2.848,0.285
		c0.711-1.645,2.562-3.074,2.562-3.074c-0.954-1.494-8.254-1.281-8.254-1.281c3.813-3.933,8.908-3.279,8.908-3.279
		c-2.449-2.119-5.536-1.974-5.536-1.974c4.441-0.368,5.712-5.868,5.712-5.868c-1.676-1.31-4.207-1.634-6.35-1.626
		c4.259-1.722,6.365-7.198,6.365-7.198c-10.562-4.476-13.94,3.237-13.94,3.237c0.633-5.901-4.877-9.403-4.877-9.403
		c-2.028,2.646-1.364,6.299-0.664,8.494c-1.146-1.861-2.941-2.125-2.941-2.125c-4.716,1.872-0.431,6.976-4.244,7.248
		c-2.199,0.155-1.639-2.934-1.639-2.934c-0.322,0.132-0.597,0.297-0.846,0.482c-1.66-0.386-3.108-0.497-4.358-0.43
		c-0.238-0.087-0.404-0.111-0.404-0.111c-0.047,0.045-0.083,0.107-0.13,0.155c-2.667,0.258-4.332,1.303-5.131,1.947v-0.164
		c1.297-2.122,0.171-5.463,0-5.941v-4.019h-1.298c-2.287-3.562-7.159-1.866-7.605-1.697c4.955-1.692,6.963-8.561,6.963-8.561
		c-5.811-1.247-9.961,1.572-12.265,3.868c0.508-3.177-2.081-7.883-2.081-7.883c-7.16,2.477-5.941,7.715-5.941,7.715
		c-1.728-5.402-9.562-6.827-9.562-6.827c-1.24,2.953,1.053,5.976,2.771,7.705c-2.094-1.299-4.28-0.989-4.28-0.989
		c-0.589,0.39-1.056,0.805-1.422,1.234c-0.863-1.86-1.729-3.218-1.729-3.218c-4.501,4.894-3.812,9.063-3.516,10.165
		c-0.99-2.774-5.512-3.398-5.512-3.398c-2.008,1.637-1.772,3.988-1.474,5.208c-0.075-0.023-0.15-0.046-0.226-0.067
		c-2.099-4.05-1.118-5.878-1.118-5.878c-5.328-0.757-6.345,5.279-6.423,5.797c0.905-5.156-4.146-10.22-4.146-10.22
		c-3.891,4.487-3.422,9.486-2.517,12.609c-2.544-1.975-7.911-1.975-7.911-1.975c-1.279,7.468,3.898,8.921,3.898,8.921
		c-5.566-1.086-7.762,2.564-7.762,2.564c3.033,3.821,7.326,3.069,7.326,3.069c-3.73,0.674-4.994,4.018-4.994,4.018
		c0.452,5.577,6.109,5.237,5.829,5.357c-0.236,0.101-0.438,0.191-0.644,0.285c-0.124-0.008-0.196-0.014-0.196-0.014
		c-0.008,0.037-0.011,0.07-0.019,0.109c-1.896,0.869-2.479,1.339-2.479,1.339c0.199,2.215,1.758,3.048,2.89,3.359
		c0.018,0.036,0.036,0.072,0.057,0.106c-3.486,0.01-4.636,3.034-4.636,3.034c0.141,0.265,0.316,0.478,0.504,0.67
		c-1.132,0.835-1.848,1.632-1.848,1.632c0.28,0.392,0.617,0.689,0.991,0.918c0.7,0,2.653,0.031,5.549,0.094
		c-0.542,1.198-0.825,2.505-1.074,3.862c-0.547,3.001-2.683,5.455-2.938,8.479c-0.119,1.413,0.047,2.629,0.414,3.696
		c-1.359,3.485-1.842,7.408-2.239,11.029c-0.414,3.772-2.069,10.562,2.413,12.744c3.947,1.922,7.316,0.232,10.167-2.778
		c0.077,0.289,0.16,0.579,0.264,0.87c1.281,3.613,6.27,5.769,9.192,2.427c0.89-1.017,1.574-2.145,2.14-3.333
		c1.381,1.558,3.685,2.422,5.634,1.715c0.717-0.26,1.353-0.577,1.924-0.947c0.492,1.222,1.153,2.369,2.1,3.393
		c1.626,1.759,4.646,2.138,6.665,0.86c2.047-1.295,3.463-2.99,4.642-4.868c0.865,0.993,1.976,1.763,3.251,2.114
		c3.271,0.9,5.58-0.917,7.366-3.308c0.187,0.455,0.398,0.901,0.649,1.332c1.74,2.984,6.207,3.719,8.638,1.112
		c0.158-0.17,0.297-0.342,0.445-0.512c0.335,0.539,0.709,1.072,1.151,1.614c2.359,2.892,6.022,1.73,8.062-0.616
		c0.844,1.022,1.866,1.855,3.238,2.316c3.716,1.25,6.248-0.685,8.621-2.993c0.279,0.279,0.557,0.542,0.756,0.741
		c1.501,1.502,3.245,2.209,5.354,2.21c1.318,0,2.527-0.515,3.55-1.292c1.857,2.235,5.617,1.794,7.575,0.015
		C259.366,148.343,264.222,146.577,263.738,142.072z"/>
	<g clip-path="url(#SVGID_2_)">
		
			<linearGradient id="SVGID_3_" gradientUnits="userSpaceOnUse" x1="120.0098" y1="91.2393" x2="120.0098" y2="141.2591" gradientTransform="matrix(0.6511 2.000000e-04 2.000000e-04 1 -1.9893 -0.0129)">
			<stop  offset="0" style="stop-color:#D1A979"/>
			<stop  offset="0.0259" style="stop-color:#B7916A"/>
			<stop  offset="0.0577" style="stop-color:#9E7A5B"/>
			<stop  offset="0.0895" style="stop-color:#8C6A50"/>
			<stop  offset="0.1209" style="stop-color:#81614A"/>
			<stop  offset="0.1517" style="stop-color:#7E5E48"/>
			<stop  offset="0.2472" style="stop-color:#A58160"/>
			<stop  offset="0.427" style="stop-color:#D1A979"/>
			<stop  offset="0.4781" style="stop-color:#BC9569"/>
			<stop  offset="0.6135" style="stop-color:#8E6A47"/>
			<stop  offset="0.6854" style="stop-color:#7F5B3C"/>
			<stop  offset="0.8652" style="stop-color:#D1A979"/>
			<stop  offset="0.8944" style="stop-color:#C59E70"/>
			<stop  offset="0.942" style="stop-color:#A78259"/>
			<stop  offset="1" style="stop-color:#7B5D3A"/>
		</linearGradient>
		<polygon fill="url(#SVGID_3_)" points="145.208,106.356 7.135,106.435 7.131,100.142 145.208,100.056 		"/>
		
			<linearGradient id="SVGID_4_" gradientUnits="userSpaceOnUse" x1="119.6943" y1="91.2393" x2="119.6943" y2="141.2474" gradientTransform="matrix(0.6511 2.000000e-04 2.000000e-04 1 -1.9893 -0.0129)">
			<stop  offset="0" style="stop-color:#D1A979"/>
			<stop  offset="0.0259" style="stop-color:#B7916A"/>
			<stop  offset="0.0577" style="stop-color:#9E7A5B"/>
			<stop  offset="0.0895" style="stop-color:#8C6A50"/>
			<stop  offset="0.1209" style="stop-color:#81614A"/>
			<stop  offset="0.1517" style="stop-color:#7E5E48"/>
			<stop  offset="0.2472" style="stop-color:#A58160"/>
			<stop  offset="0.427" style="stop-color:#D1A979"/>
			<stop  offset="0.4781" style="stop-color:#BC9569"/>
			<stop  offset="0.6135" style="stop-color:#8E6A47"/>
			<stop  offset="0.6854" style="stop-color:#7F5B3C"/>
			<stop  offset="0.8652" style="stop-color:#D1A979"/>
			<stop  offset="0.8944" style="stop-color:#C59E70"/>
			<stop  offset="0.942" style="stop-color:#A78259"/>
			<stop  offset="1" style="stop-color:#7B5D3A"/>
		</linearGradient>
		<polygon fill="url(#SVGID_4_)" points="144.792,133.438 7.152,133.521 7.146,127.224 144.787,127.148 		"/>
		
			<linearGradient id="SVGID_5_" gradientUnits="userSpaceOnUse" x1="9.8159" y1="112.8486" x2="26.1401" y2="112.8486" gradientTransform="matrix(0.9833 0 0 1 1.3806 -0.0781)">
			<stop  offset="0.0056" style="stop-color:#B27E41"/>
			<stop  offset="0.191" style="stop-color:#8B5F3B"/>
			<stop  offset="0.3427" style="stop-color:#B47F41"/>
			<stop  offset="0.4888" style="stop-color:#B27E41"/>
			<stop  offset="0.6348" style="stop-color:#8B5F3B"/>
			<stop  offset="0.9663" style="stop-color:#B47F41"/>
		</linearGradient>
		<polygon fill="url(#SVGID_5_)" stroke="#936037" stroke-width="1.0807" points="27.084,150.758 11.074,150.763 11.033,85.646 
			19.565,74.778 27.047,85.636 		"/>
		
			<linearGradient id="SVGID_6_" gradientUnits="userSpaceOnUse" x1="28.9614" y1="112.8457" x2="45.2896" y2="112.8457" gradientTransform="matrix(0.9833 0 0 1 1.3806 -0.0781)">
			<stop  offset="0.0056" style="stop-color:#B27E41"/>
			<stop  offset="0.191" style="stop-color:#8B5F3B"/>
			<stop  offset="0.3427" style="stop-color:#B47F41"/>
			<stop  offset="0.4888" style="stop-color:#B27E41"/>
			<stop  offset="0.6348" style="stop-color:#8B5F3B"/>
			<stop  offset="0.9663" style="stop-color:#B47F41"/>
		</linearGradient>
		<polygon fill="url(#SVGID_6_)" stroke="#936037" stroke-width="1.0807" points="45.914,150.747 29.9,150.763 29.859,85.633 
			38.395,74.773 45.873,85.625 		"/>
		
			<linearGradient id="SVGID_7_" gradientUnits="userSpaceOnUse" x1="48.1089" y1="112.8486" x2="64.4312" y2="112.8486" gradientTransform="matrix(0.9833 0 0 1 1.3806 -0.0781)">
			<stop  offset="0.0056" style="stop-color:#B27E41"/>
			<stop  offset="0.191" style="stop-color:#8B5F3B"/>
			<stop  offset="0.3427" style="stop-color:#B47F41"/>
			<stop  offset="0.4888" style="stop-color:#B27E41"/>
			<stop  offset="0.6348" style="stop-color:#8B5F3B"/>
			<stop  offset="0.9663" style="stop-color:#B47F41"/>
		</linearGradient>
		<polygon fill="url(#SVGID_7_)" stroke="#936037" stroke-width="1.0807" points="48.726,150.763 64.736,150.763 64.698,85.63 
			56.146,74.778 48.687,85.641 		"/>
		
			<linearGradient id="SVGID_8_" gradientUnits="userSpaceOnUse" x1="86.395" y1="112.8477" x2="102.7153" y2="112.8477" gradientTransform="matrix(0.9833 0 0 1 1.3806 -0.0781)">
			<stop  offset="0.0056" style="stop-color:#B27E41"/>
			<stop  offset="0.191" style="stop-color:#8B5F3B"/>
			<stop  offset="0.3427" style="stop-color:#B47F41"/>
			<stop  offset="0.4888" style="stop-color:#B27E41"/>
			<stop  offset="0.6348" style="stop-color:#8B5F3B"/>
			<stop  offset="0.9663" style="stop-color:#B47F41"/>
		</linearGradient>
		<polygon fill="url(#SVGID_8_)" stroke="#936037" stroke-width="1.0807" points="102.38,150.753 86.371,150.763 86.333,85.641 
			94.865,74.776 102.334,85.63 		"/>
		
			<linearGradient id="SVGID_9_" gradientUnits="userSpaceOnUse" x1="67.2529" y1="112.8477" x2="83.5723" y2="112.8475" gradientTransform="matrix(0.9833 0 0 1 1.3806 -0.0781)">
			<stop  offset="0.0056" style="stop-color:#B27E41"/>
			<stop  offset="0.191" style="stop-color:#8B5F3B"/>
			<stop  offset="0.3427" style="stop-color:#B47F41"/>
			<stop  offset="0.4888" style="stop-color:#B27E41"/>
			<stop  offset="0.6348" style="stop-color:#8B5F3B"/>
			<stop  offset="0.9663" style="stop-color:#B47F41"/>
		</linearGradient>
		<polygon fill="url(#SVGID_9_)" stroke="#936037" stroke-width="1.0807" points="83.558,150.747 67.549,150.763 67.51,85.636 
			76.043,74.776 83.513,85.63 		"/>
		
			<linearGradient id="SVGID_10_" gradientUnits="userSpaceOnUse" x1="105.5347" y1="112.8477" x2="121.8589" y2="112.8477" gradientTransform="matrix(0.9833 0 0 1 1.3806 -0.0781)">
			<stop  offset="0.0056" style="stop-color:#B27E41"/>
			<stop  offset="0.191" style="stop-color:#8B5F3B"/>
			<stop  offset="0.3427" style="stop-color:#B47F41"/>
			<stop  offset="0.4888" style="stop-color:#B27E41"/>
			<stop  offset="0.6348" style="stop-color:#8B5F3B"/>
			<stop  offset="0.9663" style="stop-color:#B47F41"/>
		</linearGradient>
		<polygon fill="url(#SVGID_10_)" stroke="#936037" stroke-width="1.0807" points="121.205,150.758 105.197,150.763 105.153,85.651 
			113.688,74.776 121.172,85.63 		"/>
		
			<linearGradient id="SVGID_11_" gradientUnits="userSpaceOnUse" x1="124.6812" y1="112.8486" x2="140.9976" y2="112.8486" gradientTransform="matrix(0.9833 0 0 1 1.3806 -0.0781)">
			<stop  offset="0.0056" style="stop-color:#B27E41"/>
			<stop  offset="0.191" style="stop-color:#8B5F3B"/>
			<stop  offset="0.3427" style="stop-color:#B47F41"/>
			<stop  offset="0.4888" style="stop-color:#B27E41"/>
			<stop  offset="0.6348" style="stop-color:#8B5F3B"/>
			<stop  offset="0.9663" style="stop-color:#B47F41"/>
		</linearGradient>
		<polygon fill="url(#SVGID_11_)" stroke="#936037" stroke-width="1.0807" points="140.024,150.758 124.011,150.763 123.98,85.63 
			132.51,74.778 139.999,85.623 		"/>
		
			<use xlink:href="#Gras_4"  width="44.766" height="23.829" x="-22.384" y="-11.915" transform="matrix(1.3425 0 0 -1.1272 37.9927 147.3965)" overflow="visible"/>
		
			<use xlink:href="#Gras_4"  width="44.766" height="23.829" x="-22.384" y="-11.915" transform="matrix(1.4369 0 0 -1.4369 100.1694 143.7021)" overflow="visible"/>
		
			<use xlink:href="#Gras_4"  width="44.766" height="23.829" x="-22.384" y="-11.915" transform="matrix(1.4369 0 0 -1.4369 109.9985 145.2998)" overflow="visible"/>
		
			<use xlink:href="#Gras_4"  width="44.766" height="23.829" x="-22.384" y="-11.915" transform="matrix(1.4606 0 0 -0.8571 115.4614 150.0781)" overflow="visible"/>
		
			<use xlink:href="#Gras_4"  width="44.766" height="23.829" x="-22.384" y="-11.915" transform="matrix(1.4369 0 0 -1.1581 75.1987 147.0273)" overflow="visible"/>
		
			<use xlink:href="#Gras_4"  width="44.766" height="23.829" x="-22.384" y="-11.915" transform="matrix(1.3425 0 0 -1.1272 30.0508 147.3965)" overflow="visible"/>
		
			<use xlink:href="#Gras_4"  width="44.766" height="23.829" x="-22.384" y="-11.915" transform="matrix(1.4369 0 0 -1.4369 52.4321 144.9736)" overflow="visible"/>
	</g>
	<g clip-path="url(#SVGID_2_)">
		
			<linearGradient id="SVGID_12_" gradientUnits="userSpaceOnUse" x1="322.813" y1="91.1982" x2="322.813" y2="141.2181" gradientTransform="matrix(0.6511 2.000000e-04 2.000000e-04 1 -1.9893 -0.0129)">
			<stop  offset="0" style="stop-color:#D1A979"/>
			<stop  offset="0.0259" style="stop-color:#B7916A"/>
			<stop  offset="0.0577" style="stop-color:#9E7A5B"/>
			<stop  offset="0.0895" style="stop-color:#8C6A50"/>
			<stop  offset="0.1209" style="stop-color:#81614A"/>
			<stop  offset="0.1517" style="stop-color:#7E5E48"/>
			<stop  offset="0.2472" style="stop-color:#A58160"/>
			<stop  offset="0.427" style="stop-color:#D1A979"/>
			<stop  offset="0.4781" style="stop-color:#BC9569"/>
			<stop  offset="0.6135" style="stop-color:#8E6A47"/>
			<stop  offset="0.6854" style="stop-color:#7F5B3C"/>
			<stop  offset="0.8652" style="stop-color:#D1A979"/>
			<stop  offset="0.8944" style="stop-color:#C59E70"/>
			<stop  offset="0.942" style="stop-color:#A78259"/>
			<stop  offset="1" style="stop-color:#7B5D3A"/>
		</linearGradient>
		<polygon fill="url(#SVGID_12_)" points="277.253,106.356 139.181,106.435 139.174,100.142 277.253,100.056 		"/>
		
			<linearGradient id="SVGID_13_" gradientUnits="userSpaceOnUse" x1="322.4995" y1="91.1982" x2="322.4995" y2="141.2064" gradientTransform="matrix(0.6511 2.000000e-04 2.000000e-04 1 -1.9893 -0.0129)">
			<stop  offset="0" style="stop-color:#D1A979"/>
			<stop  offset="0.0259" style="stop-color:#B7916A"/>
			<stop  offset="0.0577" style="stop-color:#9E7A5B"/>
			<stop  offset="0.0895" style="stop-color:#8C6A50"/>
			<stop  offset="0.1209" style="stop-color:#81614A"/>
			<stop  offset="0.1517" style="stop-color:#7E5E48"/>
			<stop  offset="0.2472" style="stop-color:#A58160"/>
			<stop  offset="0.427" style="stop-color:#D1A979"/>
			<stop  offset="0.4781" style="stop-color:#BC9569"/>
			<stop  offset="0.6135" style="stop-color:#8E6A47"/>
			<stop  offset="0.6854" style="stop-color:#7F5B3C"/>
			<stop  offset="0.8652" style="stop-color:#D1A979"/>
			<stop  offset="0.8944" style="stop-color:#C59E70"/>
			<stop  offset="0.942" style="stop-color:#A78259"/>
			<stop  offset="1" style="stop-color:#7B5D3A"/>
		</linearGradient>
		<polygon fill="url(#SVGID_13_)" points="276.838,133.438 139.196,133.521 139.192,127.224 276.829,127.148 		"/>
		
			<linearGradient id="SVGID_14_" gradientUnits="userSpaceOnUse" x1="144.1021" y1="112.8486" x2="160.4282" y2="112.8486" gradientTransform="matrix(0.9833 0 0 1 1.3806 -0.0781)">
			<stop  offset="0.0056" style="stop-color:#B27E41"/>
			<stop  offset="0.191" style="stop-color:#8B5F3B"/>
			<stop  offset="0.3427" style="stop-color:#B47F41"/>
			<stop  offset="0.4888" style="stop-color:#B27E41"/>
			<stop  offset="0.6348" style="stop-color:#8B5F3B"/>
			<stop  offset="0.9663" style="stop-color:#B47F41"/>
		</linearGradient>
		<polygon fill="url(#SVGID_14_)" stroke="#936037" stroke-width="1.0807" points="159.129,150.758 143.118,150.763 143.077,85.646 
			151.609,74.778 159.09,85.636 		"/>
		
			<linearGradient id="SVGID_15_" gradientUnits="userSpaceOnUse" x1="163.2485" y1="112.8457" x2="179.5757" y2="112.8457" gradientTransform="matrix(0.9833 0 0 1 1.3806 -0.0781)">
			<stop  offset="0.0056" style="stop-color:#B27E41"/>
			<stop  offset="0.191" style="stop-color:#8B5F3B"/>
			<stop  offset="0.3427" style="stop-color:#B47F41"/>
			<stop  offset="0.4888" style="stop-color:#B27E41"/>
			<stop  offset="0.6348" style="stop-color:#8B5F3B"/>
			<stop  offset="0.9663" style="stop-color:#B47F41"/>
		</linearGradient>
		<polygon fill="url(#SVGID_15_)" stroke="#936037" stroke-width="1.0807" points="177.958,150.747 161.944,150.763 161.903,85.633 
			170.44,74.773 177.918,85.625 		"/>
		
			<linearGradient id="SVGID_16_" gradientUnits="userSpaceOnUse" x1="182.395" y1="112.8486" x2="198.7192" y2="112.8486" gradientTransform="matrix(0.9833 0 0 1 1.3806 -0.0781)">
			<stop  offset="0.0056" style="stop-color:#B27E41"/>
			<stop  offset="0.191" style="stop-color:#8B5F3B"/>
			<stop  offset="0.3427" style="stop-color:#B47F41"/>
			<stop  offset="0.4888" style="stop-color:#B27E41"/>
			<stop  offset="0.6348" style="stop-color:#8B5F3B"/>
			<stop  offset="0.9663" style="stop-color:#B47F41"/>
		</linearGradient>
		<polygon fill="url(#SVGID_16_)" stroke="#936037" stroke-width="1.0807" points="180.772,150.763 196.782,150.763 196.746,85.63 
			188.191,74.778 180.73,85.641 		"/>
		
			<linearGradient id="SVGID_17_" gradientUnits="userSpaceOnUse" x1="220.6782" y1="112.8477" x2="236.9976" y2="112.8477" gradientTransform="matrix(0.9833 0 0 1 1.3806 -0.0781)">
			<stop  offset="0.0056" style="stop-color:#B27E41"/>
			<stop  offset="0.191" style="stop-color:#8B5F3B"/>
			<stop  offset="0.3427" style="stop-color:#B47F41"/>
			<stop  offset="0.4888" style="stop-color:#B27E41"/>
			<stop  offset="0.6348" style="stop-color:#8B5F3B"/>
			<stop  offset="0.9663" style="stop-color:#B47F41"/>
		</linearGradient>
		<polygon fill="url(#SVGID_17_)" stroke="#936037" stroke-width="1.0807" points="234.42,150.753 218.416,150.763 218.374,85.641 
			226.908,74.776 234.379,85.63 		"/>
		
			<linearGradient id="SVGID_18_" gradientUnits="userSpaceOnUse" x1="201.5405" y1="112.8477" x2="217.8599" y2="112.8475" gradientTransform="matrix(0.9833 0 0 1 1.3806 -0.0781)">
			<stop  offset="0.0056" style="stop-color:#B27E41"/>
			<stop  offset="0.191" style="stop-color:#8B5F3B"/>
			<stop  offset="0.3427" style="stop-color:#B47F41"/>
			<stop  offset="0.4888" style="stop-color:#B27E41"/>
			<stop  offset="0.6348" style="stop-color:#8B5F3B"/>
			<stop  offset="0.9663" style="stop-color:#B47F41"/>
		</linearGradient>
		<polygon fill="url(#SVGID_18_)" stroke="#936037" stroke-width="1.0807" points="215.603,150.747 199.594,150.763 199.555,85.636 
			208.085,74.776 215.556,85.63 		"/>
		
			<linearGradient id="SVGID_19_" gradientUnits="userSpaceOnUse" x1="239.8198" y1="112.8477" x2="256.145" y2="112.8477" gradientTransform="matrix(0.9833 0 0 1 1.3806 -0.0781)">
			<stop  offset="0.0056" style="stop-color:#B27E41"/>
			<stop  offset="0.191" style="stop-color:#8B5F3B"/>
			<stop  offset="0.3427" style="stop-color:#B47F41"/>
			<stop  offset="0.4888" style="stop-color:#B27E41"/>
			<stop  offset="0.6348" style="stop-color:#8B5F3B"/>
			<stop  offset="0.9663" style="stop-color:#B47F41"/>
		</linearGradient>
		<polygon fill="url(#SVGID_19_)" stroke="#936037" stroke-width="1.0807" points="253.249,150.758 237.243,150.763 237.196,85.651 
			245.731,74.776 253.217,85.63 		"/>
		
			<linearGradient id="SVGID_20_" gradientUnits="userSpaceOnUse" x1="258.9683" y1="112.8486" x2="275.2817" y2="112.8486" gradientTransform="matrix(0.9833 0 0 1 1.3806 -0.0781)">
			<stop  offset="0.0056" style="stop-color:#B27E41"/>
			<stop  offset="0.191" style="stop-color:#8B5F3B"/>
			<stop  offset="0.3427" style="stop-color:#B47F41"/>
			<stop  offset="0.4888" style="stop-color:#B27E41"/>
			<stop  offset="0.6348" style="stop-color:#8B5F3B"/>
			<stop  offset="0.9663" style="stop-color:#B47F41"/>
		</linearGradient>
		<polygon fill="url(#SVGID_20_)" stroke="#936037" stroke-width="1.0807" points="272.065,150.758 256.055,150.763 256.024,85.63 
			264.553,74.778 272.044,85.623 		"/>
		
			<use xlink:href="#Gras_4"  width="44.766" height="23.829" x="-22.384" y="-11.915" transform="matrix(1.3425 0 0 -1.1272 170.0376 147.3965)" overflow="visible"/>
		
			<use xlink:href="#Gras_4"  width="44.766" height="23.829" x="-22.384" y="-11.915" transform="matrix(1.4369 0 0 -1.4369 232.2104 143.7021)" overflow="visible"/>
		
			<use xlink:href="#Gras_4"  width="44.766" height="23.829" x="-22.384" y="-11.915" transform="matrix(1.4369 0 0 -1.4369 242.0415 145.2998)" overflow="visible"/>
		
			<use xlink:href="#Gras_4"  width="44.766" height="23.829" x="-22.384" y="-11.915" transform="matrix(1.4606 0 0 -0.8571 247.5054 150.0781)" overflow="visible"/>
		
			<use xlink:href="#Gras_4"  width="44.766" height="23.829" x="-22.384" y="-11.915" transform="matrix(1.4369 0 0 -1.1581 207.2397 147.0273)" overflow="visible"/>
		
			<use xlink:href="#Gras_4"  width="44.766" height="23.829" x="-22.384" y="-11.915" transform="matrix(1.3425 0 0 -1.1272 162.0942 147.3965)" overflow="visible"/>
		
			<use xlink:href="#Gras_4"  width="44.766" height="23.829" x="-22.384" y="-11.915" transform="matrix(1.4369 0 0 -1.4369 184.4761 144.9736)" overflow="visible"/>
	</g>
</g>
</svg>
