<?xml version="1.0" encoding="utf-8"?>
<!DOCTYPE svg PUBLIC "-//W3C//DTD SVG 1.1//EN" "http://www.w3.org/Graphics/SVG/1.1/DTD/svg11.dtd">
<svg version="1.1" xmlns="http://www.w3.org/2000/svg" xmlns:xlink="http://www.w3.org/1999/xlink" x="0px" y="0px" width="6000px"
	 height="3208.011px" viewBox="0 0 6000 3208.011" enable-background="new 0 0 6000 3208.011" xml:space="preserve">
<g id="Grid">
	<path id="baseline.svg" fill="none" stroke="#333333" stroke-width="4" stroke-miterlimit="10" d="M336.108,2689.658v-3.188
		H5645.21v3.188H336.108z"/>
	<path id="_x31_0_x5F_v.svg" fill="none" stroke="#333333" stroke-width="4" stroke-miterlimit="10" d="M339.293,2561.177h-3.186
		V118.991h3.186V2561.177z"/>
	<path id="_x32_0_x5F_v.svg" fill="none" stroke="#333333" stroke-width="4" stroke-miterlimit="10" d="M1394.742,2560.117h-3.188
		V117.929h3.188V2560.117z"/>
	<path id="_x33_0_x5F_v.svg" fill="none" stroke="#333333" stroke-width="4" stroke-miterlimit="10" d="M2462.934,2560.117h-3.186
		V117.929h3.186V2560.117z"/>
	<path id="_x34_0_x5F_v.svg" fill="none" stroke="#333333" stroke-width="4" stroke-miterlimit="10" d="M3518.383,2561.177h-3.187
		V118.991h3.187V2561.177z"/>
	<path id="_x35_0_x5F_v.svg" fill="none" stroke="#333333" stroke-width="4" stroke-miterlimit="10" d="M4575.957,2561.177h-3.188
		V118.991h3.188V2561.177z"/>
	<path id="_x36_0_x5F_v.svg" fill="none" stroke="#333333" stroke-width="4" stroke-miterlimit="10" d="M5644.146,2561.177h-3.188
		V118.991h3.188V2561.177z"/>
	<path id="_x31_0_x5F_b.svg" fill="none" stroke="#333333" stroke-width="4" stroke-miterlimit="10" d="M336.108,2580.291h3.186
		v212.365h-3.186V2580.291z"/>
	<path id="_x32_0_x5F_b.svg" fill="none" stroke="#333333" stroke-width="4" stroke-miterlimit="10" d="M1392.618,2580.291h3.187
		v212.365h-3.187V2580.291z"/>
	<path id="_x33_0_x5F_b.svg" fill="none" stroke="#333333" stroke-width="4" stroke-miterlimit="10" d="M2458.688,2582.416h3.188
		v212.363h-3.188V2582.416z"/>
	<path id="_x34_0_x5F_b.svg" fill="none" stroke="#333333" stroke-width="4" stroke-miterlimit="10" d="M3515.198,2580.291h3.187
		v212.365h-3.187V2580.291z"/>
	<path id="_x35_0_x5F_b.svg" fill="none" stroke="#333333" stroke-width="4" stroke-miterlimit="10" d="M4573.832,2581.353h3.186
		v212.363h-3.186V2581.353z"/>
	<path id="_x36_0_x5F_b.svg" fill="none" stroke="#333333" stroke-width="4" stroke-miterlimit="10" d="M5642.021,2581.353h3.188
		v212.363h-3.188V2581.353z"/>
	<path id="_x31_0_x5F_01s.svg" fill="none" stroke="#C00000" stroke-width="4" stroke-miterlimit="10" d="M435.919,2633.382h3.188
		V3112.5h-3.188V2633.382z"/>
	<path id="_x31_0_x5F_02s.svg" fill="none" stroke="#333333" stroke-width="4" stroke-miterlimit="10" d="M541.038,2633.382h3.187
		v106.186h-3.187V2633.382z"/>
	<path id="_x31_0_x5F_03s.svg" fill="none" stroke="#333333" stroke-width="4" stroke-miterlimit="10" d="M647.221,2633.382h3.188
		v106.186h-3.188V2633.382z"/>
	<path id="_x31_0_x5F_04s.svg" fill="none" stroke="#333333" stroke-width="4" stroke-miterlimit="10" d="M754.462,2633.382h3.188
		v106.186h-3.188V2633.382z"/>
	<path id="_x31_0_x5F_05s.svg" fill="none" stroke="#C00000" stroke-width="4" stroke-miterlimit="10" d="M858.523,2633.382h3.187
		v291.647h-3.187V2633.382z"/>
	<path id="_x31_0_x5F_06s.svg" fill="none" stroke="#C00000" stroke-width="4" stroke-miterlimit="10" d="M965.768,2633.382h3.187
		v204.07h-3.187V2633.382z"/>
	<path id="_x31_0_x5F_07s.svg" fill="none" stroke="#C00000" stroke-width="4" stroke-miterlimit="10" d="M1071.948,2633.382h3.187
		v143.156h-3.187V2633.382z"/>
	<path id="_x31_0_x5F_08s.svg" fill="none" stroke="#333333" stroke-width="4" stroke-miterlimit="10" d="M1181.317,2633.382h3.184
		v106.186h-3.184V2633.382z"/>
	<path id="_x31_0_x5F_09s.svg" fill="none" stroke="#333333" stroke-width="4" stroke-miterlimit="10" d="M1283.252,2633.382h3.186
		v106.186h-3.186V2633.382z"/>
	<path id="_x32_0_x5F_01s.svg" fill="none" stroke="#C00000" stroke-width="4" stroke-miterlimit="10" d="M1498.801,2632.32h3.188
		v144.216h-3.188V2632.32z"/>
	<path id="_x32_0_x5F_02s.svg" fill="none" stroke="#333333" stroke-width="4" stroke-miterlimit="10" d="M1603.921,2632.32h3.188
		v107.311h-3.188V2632.32z"/>
	<path id="_x32_0_x5F_03s.svg" fill="none" stroke="#333333" stroke-width="4" stroke-miterlimit="10" d="M1710.104,2632.32h3.188
		v107.182h-3.188V2632.32z"/>
	<path id="_x32_0_x5F_04s.svg" fill="none" stroke="#C00000" stroke-width="4" stroke-miterlimit="10" d="M1817.347,2632.32h3.187
		v226.715h-3.187V2632.32z"/>
	<path id="_x32_0_x5F_05s.svg" fill="none" stroke="#C00000" stroke-width="4" stroke-miterlimit="10" d="M1921.406,2632.32h3.187
		v388.703h-3.187V2632.32z"/>
	<path id="_x32_0_x5F_06s.svg" fill="none" stroke="#C00000" stroke-width="4" stroke-miterlimit="10" d="M2028.65,2632.32h3.186
		v292.71h-3.186V2632.32z"/>
	<path id="_x32_0_x5F_07s.svg" fill="none" stroke="#C00000" stroke-width="4" stroke-miterlimit="10" d="M2134.832,2632.32h3.186
		v205.712h-3.186V2632.32z"/>
	<path id="_x32_0_x5F_08s.svg" fill="none" stroke="#333333" stroke-width="4" stroke-miterlimit="10" d="M2244.198,2632.32h3.187
		v106.182h-3.187V2632.32z"/>
	<path id="_x32_0_x5F_09s.svg" fill="none" stroke="#333333" stroke-width="4" stroke-miterlimit="10" d="M2346.134,2632.32h3.188
		v106.182h-3.188V2632.32z"/>
	<path id="_x33_0_x5F_01s.svg" fill="none" stroke="#333333" stroke-width="4" stroke-miterlimit="10" d="M2560.621,2632.32h3.186
		v106.182h-3.186V2632.32z"/>
	<path id="_x33_0_x5F_02s.svg" fill="none" stroke="#333333" stroke-width="4" stroke-miterlimit="10" d="M2665.741,2632.32h3.186
		v106.182h-3.186V2632.32z"/>
	<path id="_x33_0_x5F_03s.svg" fill="none" stroke="#333333" stroke-width="4" stroke-miterlimit="10" d="M2771.924,2632.32h3.188
		v106.182h-3.188V2632.32z"/>
	<path id="_x33_0_x5F_04s.svg" fill="none" stroke="#C00000" stroke-width="4" stroke-miterlimit="10" d="M2879.168,2632.32h3.186
		v478.18h-3.186V2632.32z"/>
	<path id="_x33_0_x5F_05s.svg" fill="none" stroke="#C00000" stroke-width="4" stroke-miterlimit="10" d="M2983.227,2632.32h3.188
		v292.71h-3.188V2632.32z"/>
	<path id="_x33_0_x5F_06s.svg" fill="none" stroke="#333333" stroke-width="4" stroke-miterlimit="10" d="M3090.469,2632.32h3.188
		v106.182h-3.188V2632.32z"/>
	<path id="_x33_0_x5F_07s.svg" fill="none" stroke="#333333" stroke-width="4" stroke-miterlimit="10" d="M3196.653,2632.32h3.187
		v107.686h-3.187V2632.32z"/>
	<path id="_x33_0_x5F_08s.svg" fill="none" stroke="#333333" stroke-width="4" stroke-miterlimit="10" d="M3306.02,2632.32h3.188
		v106.182h-3.188V2632.32z"/>
	<path id="_x33_0_x5F_09s.svg" fill="none" stroke="#333333" stroke-width="4" stroke-miterlimit="10" d="M3407.952,2632.32h3.187
		v106.182h-3.187V2632.32z"/>
	<path id="_x34_0_x5F_01s.svg" fill="none" stroke="#333333" stroke-width="4" stroke-miterlimit="10" d="M3622.441,2633.382h3.187
		v106.186h-3.187V2633.382z"/>
	<path id="_x34_0_x5F_02s.svg" fill="none" stroke="#333333" stroke-width="4" stroke-miterlimit="10" d="M3727.562,2633.382h3.187
		v106.186h-3.187V2633.382z"/>
	<path id="_x34_0_x5F_03s.svg" fill="none" stroke="#333333" stroke-width="4" stroke-miterlimit="10" d="M3833.743,2633.382h3.187
		v106.186h-3.187V2633.382z"/>
	<path id="_x34_0_x5F_04s.svg" fill="none" stroke="#333333" stroke-width="4" stroke-miterlimit="10" d="M3940.989,2633.382h3.187
		v106.186h-3.187V2633.382z"/>
	<path id="_x34_0_x5F_05s.svg" fill="none" stroke="#333333" stroke-width="4" stroke-miterlimit="10" d="M4045.047,2633.382h3.188
		v106.186h-3.188V2633.382z"/>
	<path id="_x34_0_x5F_06s.svg" fill="none" stroke="#333333" stroke-width="4" stroke-miterlimit="10" d="M4152.291,2633.382h3.186
		v106.186h-3.186V2633.382z"/>
	<path id="_x34_0_x5F_07s.svg" fill="none" stroke="#333333" stroke-width="4" stroke-miterlimit="10" d="M4258.473,2633.382h3.188
		v106.186h-3.188V2633.382z"/>
	<path id="_x34_0_x5F_08s.svg" fill="none" stroke="#333333" stroke-width="4" stroke-miterlimit="10" d="M4367.84,2633.382h3.186
		v106.186h-3.186V2633.382z"/>
	<path id="_x34_0_x5F_09s.svg" fill="none" stroke="#333333" stroke-width="4" stroke-miterlimit="10" d="M4469.773,2633.382h3.188
		v106.186h-3.188V2633.382z"/>
	<path id="_x35_0_x5F_01s.svg" fill="none" stroke="#333333" stroke-width="4" stroke-miterlimit="10" d="M4686.387,2633.382h3.186
		v106.186h-3.186V2633.382z"/>
	<path id="_x35_0_x5F_02s.svg" fill="none" stroke="#333333" stroke-width="4" stroke-miterlimit="10" d="M4791.506,2633.382h3.186
		v106.186h-3.186V2633.382z"/>
	<path id="_x35_0_x5F_03s.svg" fill="none" stroke="#333333" stroke-width="4" stroke-miterlimit="10" d="M4897.688,2633.382h3.188
		v106.186h-3.188V2633.382z"/>
	<path id="_x35_0_x5F_04s.svg" fill="none" stroke="#333333" stroke-width="4" stroke-miterlimit="10" d="M5004.932,2633.382h3.188
		v106.186h-3.188V2633.382z"/>
	<path id="_x35_0_x5F_05s.svg" fill="none" stroke="#333333" stroke-width="4" stroke-miterlimit="10" d="M5108.99,2633.382h3.186
		v106.186h-3.186V2633.382z"/>
	<path id="_x35_0_x5F_06s.svg" fill="none" stroke="#333333" stroke-width="4" stroke-miterlimit="10" d="M5216.232,2633.382h3.188
		v106.186h-3.188V2633.382z"/>
	<path id="_x35_0_x5F_07s.svg" fill="none" stroke="#333333" stroke-width="4" stroke-miterlimit="10" d="M5322.416,2633.382h3.186
		v106.186h-3.186V2633.382z"/>
	<path id="_x35_0_x5F_08s.svg" fill="none" stroke="#333333" stroke-width="4" stroke-miterlimit="10" d="M5431.783,2633.382h3.186
		v106.186h-3.186V2633.382z"/>
	<path id="_x35_0_x5F_09s.svg" fill="none" stroke="#333333" stroke-width="4" stroke-miterlimit="10" d="M5533.719,2633.382h3.188
		v106.186h-3.188V2633.382z"/>
	<path id="_x31_0_x5F_07s.svg_1_" fill="none" stroke="#C00000" stroke-width="4" stroke-miterlimit="10" d="M1072.93,2854.516
		h3.187v19.342h-3.187V2854.516z"/>
	<path id="_x31_0_x5F_07s.svg_2_" fill="none" stroke="#C00000" stroke-width="4" stroke-miterlimit="10" d="M1072.93,2937.031
		h3.187v175.491h-3.187V2937.031z"/>
	<path id="_x32_0_x5F_01s.svg_1_" fill="none" stroke="#C00000" stroke-width="4" stroke-miterlimit="10" d="M1499.291,2847.032
		h3.188v77.998h-3.188V2847.032z"/>
	<path id="_x32_0_x5F_04s.svg_1_" fill="none" stroke="#C00000" stroke-width="4" stroke-miterlimit="10" d="M1817.838,2934.031
		h3.187v173.989h-3.187V2934.031z"/>
</g>
<g id="Beschriftung">
	<text transform="matrix(1 0 0 1 187.9385 2924.0845)" font-family="'Open Sans'" font-size="96">1990</text>
	<text transform="matrix(1 0 0 1 1254.4863 2925.0845)" font-family="'Open Sans'" font-size="96">2000</text>
	<text transform="matrix(1 0 0 1 2367.8633 2925.0845)" font-family="'Open Sans'" font-size="96">2010</text>
	<text transform="matrix(1 0 0 1 3423.3145 2925.0845)" font-family="'Open Sans'" font-size="96">2020</text>
	<text transform="matrix(1 0 0 1 4477.7012 2924.0229)" font-family="'Open Sans'" font-size="96">2030</text>
	<text transform="matrix(1 0 0 1 5550.1387 2925.0845)" font-family="'Open Sans'" font-size="96">2040</text>
</g>
<g id="Projekte">
	<g id="RI">
		<rect x="336.108" y="241.188" fill="#C00000" width="4561.579" height="229.307"/>
		<text transform="matrix(1 0 0 1 2134.8311 402.5522)" fill="#FFFFFF" font-family="'Open Sans'" font-size="127.4185">Regesta Imperii (seit 1979)</text>
	</g>
	<g id="DFD">
		<rect x="2668.927" y="614.021" fill="#59922B" width="2443.249" height="229.309"/>
		<text transform="matrix(1 0 0 1 2834.5703 774.3237)" fill="#FFFFFF" font-family="'Open Sans'" font-size="127.4185">Digitales Familiennamenwörterbuch</text>
	</g>
	<g id="CVMA">
		<rect x="337.17" y="1005.892" fill="#4F81BD" width="4240.91" height="229.311"/>
		<text transform="matrix(1 0 0 1 1696.2988 1159.8306)" fill="#FFFFFF" font-family="'Open Sans'" font-size="127.4185">Corpus Vitrearum Medii Aevi (seit 1979)</text>
	</g>
	<g id="Funde">
		<rect x="1817.347" y="1410.165" fill="#B178B1" width="1593.792" height="229.307"/>
		<text transform="matrix(1 0 0 1 1923.5283 1563.3071)" fill="#FFFFFF" font-family="'Open Sans'" font-size="127.4185">Funde der ä. Bronzezeit</text>
	</g>
	<g id="CM">
		<rect x="2459.618" y="1811.437" fill="#453D3F" width="1807.854" height="229.311"/>
		
			<text id="Corpus_Monodicum" transform="matrix(1.0039 0 0 1 2744.2266 1964.5806)" fill="#FFFFFF" font-family="'Open Sans'" font-size="127.4185">Corpus Monodicum</text>
	</g>
	<g id="Goethe">
		<rect x="3086.781" y="2199.89" fill="#D17905" width="2448.182" height="229.311"/>
		
			<text id="Corpus_Monodicum_1_" transform="matrix(0.9245 0 0 1 3769.0127 2358.3423)" fill="#FFFFFF" font-family="'Open Sans'" font-size="127.4185">Goethe PROPYLÄEN</text>
	</g>
</g>
<g id="Internet">
	<text transform="matrix(1 0 0 1 1102.9805 3111.0864)" fill="#C00000" font-family="'Open Sans'" font-size="72">Google.com</text>
	<text transform="matrix(1 0 0 1 466.981 3050.1011)" fill="#C00000" font-family="'Open Sans'" font-size="72">Word Wide Web</text>
	<text transform="matrix(1 0 0 1 466.981 3122.1011)" fill="#C00000" font-family="'Open Sans'" font-size="72">Projekt öffentlich</text>
	<text transform="matrix(1 0 0 1 2059.981 2924.0825)" fill="#C00000" font-family="'Open Sans'" font-size="72">Twitter</text>
	<text transform="matrix(1 0 0 1 2028.9819 2597.6021)" fill="#C00000" font-family="'Open Sans'" font-size="72">–</text>
	<text transform="matrix(1 0 0 1 1055.4756 2601.6157)" fill="#C00000" font-family="'Open Sans'" font-size="72">1997</text>
	<text transform="matrix(1 0 0 1 369.9868 2601.1304)" fill="#C00000" font-family="'Open Sans'" font-size="72">1991</text>
	<text transform="matrix(1 0 0 1 1523.98 2924.0825)" fill="#C00000" font-family="'Open Sans'" font-size="72">Wikipedia</text>
	<text transform="matrix(1 0 0 1 1437.4814 2600.6011)" fill="#C00000" font-family="'Open Sans'" font-size="72">2001</text>
	<text transform="matrix(1 0 0 1 1844.9785 3110.0864)" fill="#C00000" font-family="'Open Sans'" font-size="72">Facebook</text>
	<text transform="matrix(1 0 0 1 1813.4893 2603.6021)" fill="#C00000" font-family="'Open Sans'" font-size="72">2004</text>
	<text transform="matrix(1 0 0 1 2128.4727 2601.6011)" fill="#C00000" font-family="'Open Sans'" font-size="72">2007</text>
	<text transform="matrix(1 0 0 1 2165.98 2839.6011)" fill="#C00000" font-family="'Open Sans'" font-size="72">iPhone</text>
	<text transform="matrix(1 0 0 1 2970.4814 2600.6011)" fill="#C00000" font-family="'Open Sans'" font-size="72">2014</text>
	<text transform="matrix(1 0 0 1 3026.9805 2923.0679)" fill="#C00000" font-family="'Open Sans'" font-size="72">HTML 5</text>
	<text transform="matrix(1 0 0 1 721.4634 2600.6284)" fill="#C00000" font-family="'Open Sans'" font-size="72">1995</text>
	<text transform="matrix(1 0 0 1 892.9707 2924.1313)" fill="#C00000" font-family="'Open Sans'" font-size="72">Amazon</text>
	<text transform="matrix(1 0 0 1 1951.9624 3021.1353)" fill="#C00000" font-family="'Open Sans'" font-size="72">YouTube</text>
	<text transform="matrix(1 0 0 1 2922.0713 3112.1353)" fill="#C00000" font-family="'Open Sans'" font-size="72">Edward Snowden</text>
	<text transform="matrix(1 0 0 1 2748.4814 2600.6011)" fill="#C00000" font-family="'Open Sans'" font-size="72">2013</text>
	<text transform="matrix(1 0 0 1 1004.189 2840.1196)" fill="#C00000" font-family="'Open Sans'" font-size="72">Internet Archive</text>
	<text transform="matrix(1 0 0 1 947.4575 2599.6284)" fill="#C00000" font-family="'Open Sans'" font-size="72">–</text>
</g>
</svg>
